<svg width="53" height="52" viewBox="0 0 53 52" fill="none" xmlns="http://www.w3.org/2000/svg">
<path d="M17.6656 0.5H37.3567C41.0848 0.5 44.1627 1.80608 46.3097 4.05364C48.4587 6.30323 49.7115 9.53458 49.7115 13.4474V32.0058C49.7115 35.9069 48.4589 39.1325 46.3099 41.3794C44.1629 43.6244 41.0848 44.9305 37.3567 44.9305H17.6656C13.9374 44.9305 10.8534 43.6243 8.70053 41.379C6.54591 39.1319 5.28809 35.9063 5.28809 32.0058V13.4474C5.28809 9.53518 6.54614 6.3039 8.70074 4.05409C10.8535 1.80616 13.9374 0.5 17.6656 0.5Z" fill="#38ADD7" fill-opacity="0.65" stroke="url(#paint0_linear_1403_14857)"/>
<g filter="url(#filter0_bd_1403_14857)">
<mask id="path-2-inside-1_1403_14857" fill="white">
<path d="M24.8037 30.0929C24.2949 30.0929 23.7862 29.8998 23.3978 29.5114L18.0083 24.1211C17.2316 23.3442 17.2316 22.0858 18.0083 21.3112C18.7851 20.5343 20.041 20.532 20.8178 21.3089L24.8037 25.2954L34.1791 15.9186C34.9558 15.1417 36.2118 15.1417 36.9885 15.9186C37.7652 16.6954 37.7652 17.9539 36.9885 18.7307L26.2095 29.5114C25.8212 29.8998 25.3124 30.0929 24.8037 30.0929Z"/>
</mask>
<path d="M24.8037 30.0929C24.2949 30.0929 23.7862 29.8998 23.3978 29.5114L18.0083 24.1211C17.2316 23.3442 17.2316 22.0858 18.0083 21.3112C18.7851 20.5343 20.041 20.532 20.8178 21.3089L24.8037 25.2954L34.1791 15.9186C34.9558 15.1417 36.2118 15.1417 36.9885 15.9186C37.7652 16.6954 37.7652 17.9539 36.9885 18.7307L26.2095 29.5114C25.8212 29.8998 25.3124 30.0929 24.8037 30.0929Z" fill="url(#paint1_linear_1403_14857)"/>
<path d="M23.3978 29.5114L23.2564 29.6528L23.3978 29.5114ZM18.0083 21.3112L18.1496 21.4528L18.1498 21.4526L18.0083 21.3112ZM24.8037 25.2954L24.6622 25.4368L24.8037 25.5783L24.9451 25.4368L24.8037 25.2954ZM36.9885 18.7307L36.8471 18.5893L36.9885 18.7307ZM26.2095 29.5114L26.351 29.6528L26.2095 29.5114ZM24.8037 29.8929C24.3456 29.8929 23.8884 29.7192 23.5393 29.37L23.2564 29.6528C23.6839 30.0804 24.2443 30.2929 24.8037 30.2929V29.8929ZM23.5393 29.37L18.1498 23.9796L17.8669 24.2625L23.2564 29.6528L23.5393 29.37ZM18.1498 23.9796C17.451 23.2808 17.4513 22.1491 18.1496 21.4528L17.8671 21.1696C17.0119 22.0224 17.0122 23.4076 17.8669 24.2625L18.1498 23.9796ZM18.1498 21.4526C18.8487 20.7536 19.978 20.7519 20.6763 21.4503L20.9592 21.1675C20.1041 20.3122 18.7215 20.3151 17.8669 21.1698L18.1498 21.4526ZM20.6763 21.4503L24.6622 25.4368L24.9451 25.154L20.9592 21.1675L20.6763 21.4503ZM24.9451 25.4368L34.3205 16.06L34.0376 15.7772L24.6622 25.154L24.9451 25.4368ZM34.3205 16.06C35.0191 15.3613 36.1484 15.3613 36.8471 16.06L37.1299 15.7772C36.2751 14.9222 34.8925 14.9222 34.0376 15.7772L34.3205 16.06ZM36.8471 16.06C37.5457 16.7588 37.5457 17.8906 36.8471 18.5893L37.1299 18.8721C37.9848 18.0172 37.9848 16.6321 37.1299 15.7772L36.8471 16.06ZM36.8471 18.5893L26.0681 29.37L26.351 29.6528L37.1299 18.8721L36.8471 18.5893ZM26.0681 29.37C25.7189 29.7192 25.2618 29.8929 24.8037 29.8929V30.2929C25.363 30.2929 25.9234 30.0804 26.351 29.6528L26.0681 29.37Z" fill="url(#paint2_linear_1403_14857)" fill-opacity="0.5" mask="url(#path-2-inside-1_1403_14857)"/>
</g>
<defs>
<filter id="filter0_bd_1403_14857" x="0.425781" y="0.335938" width="52.1455" height="50.7568" filterUnits="userSpaceOnUse" color-interpolation-filters="sRGB">
<feFlood flood-opacity="0" result="BackgroundImageFix"/>
<feGaussianBlur in="BackgroundImageFix" stdDeviation="7.5"/>
<feComposite in2="SourceAlpha" operator="in" result="effect1_backgroundBlur_1403_14857"/>
<feColorMatrix in="SourceAlpha" type="matrix" values="0 0 0 0 0 0 0 0 0 0 0 0 0 0 0 0 0 0 127 0" result="hardAlpha"/>
<feOffset dx="-1" dy="5"/>
<feGaussianBlur stdDeviation="8"/>
<feColorMatrix type="matrix" values="0 0 0 0 0.2 0 0 0 0 0.596078 0 0 0 0 0.858824 0 0 0 0.85 0"/>
<feBlend mode="normal" in2="effect1_backgroundBlur_1403_14857" result="effect2_dropShadow_1403_14857"/>
<feBlend mode="normal" in="SourceGraphic" in2="effect2_dropShadow_1403_14857" result="shape"/>
</filter>
<linearGradient id="paint0_linear_1403_14857" x1="12.0187" y1="5.29271" x2="40.9995" y2="41.1805" gradientUnits="userSpaceOnUse">
<stop stop-color="white" stop-opacity="0.25"/>
<stop offset="1" stop-color="white" stop-opacity="0"/>
</linearGradient>
<linearGradient id="paint1_linear_1403_14857" x1="36.1428" y1="18.0007" x2="13.7234" y2="18.9986" gradientUnits="userSpaceOnUse">
<stop stop-color="white"/>
<stop offset="1" stop-color="white" stop-opacity="0.2"/>
</linearGradient>
<linearGradient id="paint2_linear_1403_14857" x1="19.5959" y1="20.2862" x2="36.7015" y2="20.4151" gradientUnits="userSpaceOnUse">
<stop stop-color="white"/>
<stop offset="1" stop-color="white" stop-opacity="0"/>
</linearGradient>
</defs>
</svg>
