<svg width="18" height="18" viewBox="0 0 18 18" fill="none" xmlns="http://www.w3.org/2000/svg">
<path d="M7.83317 12.8337L13.7082 6.95866L12.5415 5.79199L7.83317 10.5003L5.45817 8.12533L4.2915 9.29199L7.83317 12.8337ZM8.99984 17.3337C7.84706 17.3337 6.76373 17.1149 5.74984 16.6774C4.73595 16.2399 3.854 15.6462 3.104 14.8962C2.354 14.1462 1.76025 13.2642 1.32275 12.2503C0.885254 11.2364 0.666504 10.1531 0.666504 9.00033C0.666504 7.84755 0.885254 6.76421 1.32275 5.75033C1.76025 4.73644 2.354 3.85449 3.104 3.10449C3.854 2.35449 4.73595 1.76074 5.74984 1.32324C6.76373 0.885742 7.84706 0.666992 8.99984 0.666992C10.1526 0.666992 11.2359 0.885742 12.2498 1.32324C13.2637 1.76074 14.1457 2.35449 14.8957 3.10449C15.6457 3.85449 16.2394 4.73644 16.6769 5.75033C17.1144 6.76421 17.3332 7.84755 17.3332 9.00033C17.3332 10.1531 17.1144 11.2364 16.6769 12.2503C16.2394 13.2642 15.6457 14.1462 14.8957 14.8962C14.1457 15.6462 13.2637 16.2399 12.2498 16.6774C11.2359 17.1149 10.1526 17.3337 8.99984 17.3337Z" fill="#65C466"/>
</svg>
