<svg width="53" height="53" viewBox="0 0 53 53" fill="none" xmlns="http://www.w3.org/2000/svg">
<g filter="url(#filter0_b_1403_20331)">
<path d="M51.098 37.2644L32.7523 5.42487C30.8344 2.02359 26.4688 0.773118 23.0368 2.67634C21.8508 3.30157 20.8919 4.27444 20.261 5.40236L1.78905 37.4895C0.300189 41.0883 2.06663 45.2399 5.72569 46.7154C6.4575 46.9905 7.23979 47.1681 8.02207 47.2156H44.966C46.8586 47.1156 48.5998 46.2903 49.8868 44.8923C51.1737 43.4892 51.8298 41.666 51.7289 39.7903C51.6784 38.9875 51.5018 38.2147 51.098 37.2644Z" fill="#F2564B" fill-opacity="0.65"/>
<path d="M51.5582 37.0689C51.5503 37.0503 51.5413 37.0322 51.5313 37.0147L33.1878 5.17929C33.1874 5.17858 33.187 5.17786 33.1866 5.17715C31.1346 1.54065 26.4707 0.203574 22.7989 2.23652C21.526 2.90882 20.5008 3.95061 19.8261 5.15554C19.8256 5.15646 19.8251 5.15737 19.8246 5.15829L1.35572 37.24C1.3449 37.2588 1.33532 37.2783 1.32703 37.2983C-0.270008 41.1586 1.62664 45.6016 5.53869 47.1792L5.53864 47.1793L5.54975 47.1835C6.32405 47.4745 7.15533 47.6639 7.99175 47.7147C8.00185 47.7153 8.01196 47.7156 8.02207 47.7156H44.966C44.9748 47.7156 44.9836 47.7154 44.9923 47.7149C47.0167 47.6079 48.88 46.7241 50.2546 45.2309L50.2552 45.2302C51.6321 43.7292 52.3364 41.7748 52.2282 39.7635L52.2279 39.759C52.1736 38.8945 51.982 38.0664 51.5582 37.0689Z" stroke="url(#paint0_linear_1403_20331)" stroke-linecap="round" stroke-linejoin="round"/>
</g>
<g filter="url(#filter1_bd_1403_20331)">
<mask id="path-3-inside-1_1403_20331" fill="white">
<path fill-rule="evenodd" clip-rule="evenodd" d="M26.4951 28.6115C27.7064 28.6115 28.6905 27.6087 28.6905 26.4082V19.333C28.6905 18.1301 27.7064 17.1572 26.4951 17.1572C25.2838 17.1572 24.2744 18.1301 24.2744 19.333V26.4082C24.2744 27.6087 25.2838 28.6115 26.4951 28.6115ZM24.2744 34.9628C24.2744 36.1607 25.2837 37.1636 26.495 37.1636C27.7063 37.1636 28.6905 36.1607 28.6905 34.9353C28.6905 33.7373 27.7063 32.7595 26.495 32.7595C25.2837 32.7595 24.2744 33.7598 24.2744 34.9628Z"/>
</mask>
<path fill-rule="evenodd" clip-rule="evenodd" d="M26.4951 28.6115C27.7064 28.6115 28.6905 27.6087 28.6905 26.4082V19.333C28.6905 18.1301 27.7064 17.1572 26.4951 17.1572C25.2838 17.1572 24.2744 18.1301 24.2744 19.333V26.4082C24.2744 27.6087 25.2838 28.6115 26.4951 28.6115ZM24.2744 34.9628C24.2744 36.1607 25.2837 37.1636 26.495 37.1636C27.7063 37.1636 28.6905 36.1607 28.6905 34.9353C28.6905 33.7373 27.7063 32.7595 26.495 32.7595C25.2837 32.7595 24.2744 33.7598 24.2744 34.9628Z" fill="url(#paint1_linear_1403_20331)"/>
<path d="M28.2906 26.4082C28.2906 27.3909 27.4824 28.2115 26.4951 28.2115V29.0115C27.9305 29.0115 29.0906 27.8264 29.0906 26.4082H28.2906ZM28.2906 19.333V26.4082H29.0906V19.333H28.2906ZM26.4951 17.5572C27.4892 17.5572 28.2906 18.3547 28.2906 19.333H29.0906C29.0906 17.9055 27.9236 16.7572 26.4951 16.7572V17.5572ZM24.6745 19.333C24.6745 18.3606 25.4951 17.5572 26.4951 17.5572V16.7572C25.0726 16.7572 23.8745 17.8996 23.8745 19.333H24.6745ZM24.6745 26.4082V19.333H23.8745V26.4082H24.6745ZM26.4951 28.2115C25.502 28.2115 24.6745 27.385 24.6745 26.4082H23.8745C23.8745 27.8324 25.0658 29.0115 26.4951 29.0115V28.2115ZM26.4951 36.7636C25.5016 36.7636 24.6744 35.9367 24.6744 34.9628H23.8744C23.8744 36.3847 25.066 37.5636 26.4951 37.5636V36.7636ZM28.2905 34.9353C28.2905 35.9459 27.4794 36.7636 26.4951 36.7636V37.5636C27.9333 37.5636 29.0905 36.3756 29.0905 34.9353H28.2905ZM26.4951 33.1595C27.4885 33.1595 28.2905 33.9613 28.2905 34.9353H29.0905C29.0905 33.5133 27.9242 32.3595 26.4951 32.3595V33.1595ZM24.6744 34.9628C24.6744 33.9838 25.5016 33.1595 26.4951 33.1595V32.3595C25.066 32.3595 23.8744 33.5358 23.8744 34.9628H24.6744Z" fill="url(#paint2_linear_1403_20331)" mask="url(#path-3-inside-1_1403_20331)"/>
</g>
<defs>
<filter id="filter0_b_1403_20331" x="-23.7402" y="-23.2148" width="100.479" height="95.4307" filterUnits="userSpaceOnUse" color-interpolation-filters="sRGB">
<feFlood flood-opacity="0" result="BackgroundImageFix"/>
<feGaussianBlur in="BackgroundImageFix" stdDeviation="12"/>
<feComposite in2="SourceAlpha" operator="in" result="effect1_backgroundBlur_1403_20331"/>
<feBlend mode="normal" in="SourceGraphic" in2="effect1_backgroundBlur_1403_20331" result="shape"/>
</filter>
<filter id="filter1_bd_1403_20331" x="9.27441" y="2.15723" width="34.416" height="50.0068" filterUnits="userSpaceOnUse" color-interpolation-filters="sRGB">
<feFlood flood-opacity="0" result="BackgroundImageFix"/>
<feGaussianBlur in="BackgroundImageFix" stdDeviation="7.5"/>
<feComposite in2="SourceAlpha" operator="in" result="effect1_backgroundBlur_1403_20331"/>
<feColorMatrix in="SourceAlpha" type="matrix" values="0 0 0 0 0 0 0 0 0 0 0 0 0 0 0 0 0 0 127 0" result="hardAlpha"/>
<feOffset dx="5" dy="5"/>
<feGaussianBlur stdDeviation="5"/>
<feColorMatrix type="matrix" values="0 0 0 0 0.929167 0 0 0 0 0.367491 0 0 0 0 0.344566 0 0 0 1 0"/>
<feBlend mode="normal" in2="effect1_backgroundBlur_1403_20331" result="effect2_dropShadow_1403_20331"/>
<feBlend mode="normal" in="SourceGraphic" in2="effect2_dropShadow_1403_20331" result="shape"/>
</filter>
<linearGradient id="paint0_linear_1403_20331" x1="9.29606" y1="7.07786" x2="37.4921" y2="45.8795" gradientUnits="userSpaceOnUse">
<stop stop-color="white" stop-opacity="0.25"/>
<stop offset="1" stop-color="white" stop-opacity="0"/>
</linearGradient>
<linearGradient id="paint1_linear_1403_20331" x1="26.483" y1="18.2857" x2="22.4283" y2="17.9102" gradientUnits="userSpaceOnUse">
<stop stop-color="white" stop-opacity="0.75"/>
<stop offset="1" stop-color="white" stop-opacity="0.2"/>
</linearGradient>
<linearGradient id="paint2_linear_1403_20331" x1="24.9774" y1="19.488" x2="31.6191" y2="21.3037" gradientUnits="userSpaceOnUse">
<stop stop-color="white" stop-opacity="0.25"/>
<stop offset="1" stop-color="white" stop-opacity="0"/>
</linearGradient>
</defs>
</svg>
